<svg id="Capa_1" data-name="Capa 1" xmlns="http://www.w3.org/2000/svg" viewBox="0 0 428 428"><defs><style>.cls-1{fill:#fff;}</style></defs><path class="cls-1" d="M45,8.9c-8.9,2.9-14.1,6-20.6,12.5C14.7,31.1,10,42.4,10,56c0,20.1,10.7,37.2,28.7,45.7,7.1,3.4,8.7,3.8,18,4.1,12.5.5,20.9-1.7,30.2-7.9,7.8-5.2,12.5-10.7,16.7-19.4,7.3-15.1,7.1-30.3-.4-45.5-3.3-6.7-12.9-16.5-19.8-20.2C72.6,7,56.1,5.3,45,8.9Z"/><path class="cls-1" d="M307.5,136.6c-31.5,4.5-53.7,17.3-67.4,39l-3.1,4.8V143H155V417h85.9l.3-80.8c.4-79.1.4-80.9,2.5-88.4,6.3-22.2,18.5-33.4,39.1-35.6,26.7-3,42.7,8,48.9,33.5,1.5,6,1.7,16.5,2,89l.4,82.3h86l-.4-93.3c-.4-80.8-.6-94.5-2.1-102.6-5.4-31.1-15.7-52.1-32-65.3-10.7-8.6-23.7-14.2-40.3-17.2C337,137,313.1,135.8,307.5,136.6Z"/><path class="cls-1" d="M16,280V417h86V143H16Z"/></svg>